<svg xmlns="http://www.w3.org/2000/svg" version="1.1" xmlns:xlink="http://www.w3.org/1999/xlink" xmlns:svgjs="http://svgjs.dev/svgjs" width="1500" height="371" viewBox="0 0 1500 371"><g transform="matrix(1,0,0,1,-0.9090909090909918,-0.6527946606330204)"><svg viewBox="0 0 396 98" data-background-color="#ffffff" preserveAspectRatio="xMidYMid meet" height="371" width="1500" xmlns="http://www.w3.org/2000/svg" xmlns:xlink="http://www.w3.org/1999/xlink"><g id="tight-bounds" transform="matrix(1,0,0,1,0.2400000000000091,0.17243632545023502)"><svg viewBox="0 0 395.52 97.65512734909952" height="97.65512734909952" width="395.52"><g><svg viewBox="0 0 543.5024134658868 134.19244893192283" height="97.65512734909952" width="395.52"><g transform="matrix(1,0,0,1,147.98241346588674,37.88960343298071)"><svg viewBox="0 0 395.52 58.41324206596141" height="58.41324206596141" width="395.52"><g id="textblocktransform"><svg viewBox="0 0 395.52 58.41324206596141" height="58.41324206596141" width="395.52" id="textblock"><g><svg viewBox="0 0 395.52 58.41324206596141" height="58.41324206596141" width="395.52"><g transform="matrix(1,0,0,1,0,0)"><svg width="395.52" viewBox="3.7 -35 241.04000000000002 35.6" height="58.41324206596141" data-palette-color="#111111"><path d="M3.7 0L3.7-34.4 31.5-34.4 31.5-26.15 14.75-26.15 14.75-20.25 29.15-20.25 29.15-12.35 14.75-12.35 14.75 0 3.7 0ZM67.1 0L55.4 0 53.95-4.85 41.9-4.85 40.45 0 29.15 0 41.7-34.4 54.55-34.4 67.1 0ZM47.85-24.8L44.2-12.55 51.65-12.55 48.05-24.8 47.85-24.8ZM85.7-35Q92.3-35 96.55-32.33 100.8-29.65 100.9-24.4L100.9-24.4 100.9-23.8 90.55-23.8 90.55-24Q90.55-25.5 89.45-26.5 88.35-27.5 86.1-27.5L86.1-27.5Q83.9-27.5 82.72-26.85 81.55-26.2 81.55-25.25L81.55-25.25Q81.55-23.9 83.15-23.25 84.75-22.6 88.3-21.9L88.3-21.9Q92.45-21.05 95.12-20.13 97.8-19.2 99.8-17.1 101.8-15 101.85-11.4L101.85-11.4Q101.85-5.3 97.72-2.35 93.6 0.6 86.7 0.6L86.7 0.6Q78.65 0.6 74.17-2.1 69.7-4.8 69.7-11.65L69.7-11.65 80.15-11.65Q80.15-9.05 81.5-8.18 82.85-7.3 85.7-7.3L85.7-7.3Q87.8-7.3 89.17-7.75 90.55-8.2 90.55-9.6L90.55-9.6Q90.55-10.85 89.02-11.48 87.5-12.1 84.05-12.8L84.05-12.8Q79.85-13.7 77.1-14.68 74.35-15.65 72.3-17.9 70.25-20.15 70.25-24L70.25-24Q70.25-29.65 74.62-32.33 79-35 85.7-35L85.7-35ZM138.39-25.6L127.14-25.6 127.14 0 116.09 0 116.09-25.6 104.79-25.6 104.79-34.4 138.39-34.4 138.39-25.6ZM162.74-34.4Q165.94-34.4 168.44-32.93 170.94-31.45 172.34-28.88 173.74-26.3 173.74-23.1L173.74-23.1 173.74-22.45Q173.74-19.25 172.34-16.65 170.94-14.05 168.44-12.58 165.94-11.1 162.74-11.1L162.74-11.1 154.49-11.1 154.49 0 143.44 0 143.44-34.4 162.74-34.4ZM154.49-26.25L154.49-19.15 159.04-19.15Q160.79-19.15 161.67-20.05 162.54-20.95 162.54-22.5L162.54-22.5 162.54-22.9Q162.54-24.5 161.67-25.38 160.79-26.25 159.04-26.25L159.04-26.25 154.49-26.25ZM210.04 0L198.34 0 196.89-4.85 184.84-4.85 183.39 0 172.09 0 184.64-34.4 197.49-34.4 210.04 0ZM190.79-24.8L187.14-12.55 194.59-12.55 190.99-24.8 190.79-24.8ZM231.29-13.35L231.29 0 220.24 0 220.24-13.35 206.59-34.4 219.29-34.4 225.89-22.95 226.09-22.95 232.69-34.4 244.74-34.4 231.29-13.35Z" opacity="1" transform="matrix(1,0,0,1,0,0)" fill="#111111" class="wordmark-text-0" data-fill-palette-color="primary" id="text-0"></path></svg></g></svg></g></svg></g></svg></g><g><svg viewBox="0 0 134.19244893192283 134.19244893192283" height="134.19244893192283" width="134.19244893192283"><g><svg></svg></g><g id="icon-0"><svg viewBox="0 0 134.19244893192283 134.19244893192283" height="134.19244893192283" width="134.19244893192283"><g><rect width="122.01572671402613" height="122.01572671402613" x="6.088361108948348" y="6.088361108948348" fill="#f84e45" data-fill-palette-color="accent"></rect><rect width="122.01572671402613" height="122.01572671402613" x="12.176722217896698" y="-1.7763568394002505e-15" fill="#f84e45" opacity="0.5" data-fill-palette-color="accent"></rect></g><g transform="matrix(1,0,0,1,17.395317454138144,29.823503885174695)"><svg viewBox="0 0 99.40181402364654 74.54544116157344" height="74.54544116157344" width="99.40181402364654"><g><svg xmlns="http://www.w3.org/2000/svg" xmlns:xlink="http://www.w3.org/1999/xlink" version="1.1" x="0" y="0" viewBox="9.071999917801508 19.307 81.8559993643236 61.38712501648496" enable-background="new 0 0 100 100" xml:space="preserve" height="74.54544116157344" width="99.40181402364654" class="icon-dxe-0" data-fill-palette-color="quaternary" id="dxe-0"><path d="M40.058 57.315C39.818 56.894 39.578 56.472 39.353 56.042 39.092 55.543 39.147 55.393 39.679 55.225 40.586 54.939 41.395 54.479 42.141 53.898 42.623 53.523 42.998 53.062 43.221 52.491 43.638 51.429 42.895 50.454 41.756 50.565 41.368 50.603 40.998 50.715 40.633 50.857 39.7 51.22 38.805 51.679 37.825 51.925 36.236 52.324 34.789 52.137 33.653 50.854 32.368 49.403 32.289 47.777 33.087 46.067 33.416 45.362 33.426 45.367 32.888 44.823 32.706 44.639 32.52 44.46 32.342 44.272 31.945 43.854 31.945 43.715 32.337 43.298 32.459 43.169 32.588 43.046 32.714 42.92 33.577 42.054 33.577 42.054 34.446 42.916 35.06 43.525 35.062 43.528 35.767 43.014A7.6 7.6 0 0 1 37.511 42.072C37.854 41.939 38.11 42.016 38.287 42.339 38.552 42.821 38.826 43.297 39.076 43.786 39.313 44.249 39.252 44.411 38.754 44.585A6.04 6.04 0 0 0 36.203 46.292C36.018 46.499 35.853 46.716 35.751 46.976 35.388 47.902 35.995 48.717 36.982 48.608 37.481 48.553 37.959 48.396 38.425 48.203 39.231 47.869 40.033 47.521 40.874 47.279 43.554 46.509 46.186 48.21 46.447 50.902A4.6 4.6 0 0 1 45.844 53.656C45.633 54.027 45.655 54.309 45.971 54.598 46.281 54.882 46.564 55.194 46.86 55.492 47.125 55.758 47.131 56.035 46.877 56.303 46.565 56.631 46.245 56.951 45.919 57.265 45.633 57.54 45.343 57.513 45.066 57.243L44.408 56.598C43.925 56.124 43.889 56.119 43.355 56.507 42.672 57.003 41.959 57.447 41.158 57.725 40.53 57.944 40.381 57.881 40.058 57.315M69.876 39.109C69.814 40.663 82.299 56.27 85.299 59.997A1.965 1.965 0 0 1 87.493 60.398L90.351 63.256A1.97 1.97 0 0 1 90.351 66.042L79.321 77.072A1.97 1.97 0 0 1 76.535 77.072L73.677 74.214A1.97 1.97 0 0 1 73.294 71.985L72.119 70.81C69.131 70.743 66.268 69.918 64.063 69.063L54.567 78.561C51.723 81.405 47.096 81.405 44.253 78.562L14.08 48.394A7.25 7.25 0 0 1 11.943 43.237C11.943 41.289 12.701 39.457 14.079 38.08L27.84 24.315C30.684 21.471 35.311 21.471 38.154 24.314L49.008 35.166C53.682 34.923 62.963 35.378 63.85 35.267 67.6 34.799 69.876 39.109 69.876 39.109M60.567 67.455C60.157 67.232 59.924 67.091 59.924 67.091L45.64 67.559C40.552 67.418 39.898 64.167 39.898 64.167 40.02 59.598 50.616 59.305 50.616 59.305S63.173 56.583 61.166 52.508C61.136 52.448 61.105 52.393 61.076 52.333L35.604 26.866A3.69 3.69 0 0 0 30.392 26.867L16.63 40.631A3.66 3.66 0 0 0 15.551 43.237C15.551 44.221 15.934 45.147 16.631 45.843L46.803 76.01A3.69 3.69 0 0 0 52.015 76.009zM26.545 36.779A1.346 1.346 0 1 0 24.642 34.875 1.346 1.346 0 0 0 26.545 36.779M12.18 30.806L12.186 30.495A8.384 8.384 0 0 1 20.26 22.421L20.571 22.415A1.554 1.554 0 0 0 20.571 19.307L20.26 19.313A11.42 11.42 0 0 0 12.441 22.675 11.43 11.43 0 0 0 9.078 30.494L9.072 30.805A1.554 1.554 0 0 0 12.18 30.806M15.959 26.194A6.47 6.47 0 0 0 14.051 30.495L14.045 30.806A1.554 1.554 0 0 0 17.153 30.806C17.153 30.7 17.165 30.495 17.165 30.495A3.43 3.43 0 0 1 18.153 28.387 3.4 3.4 0 0 1 20.26 27.405S20.465 27.387 20.571 27.387A1.554 1.554 0 0 0 20.571 24.279L20.26 24.285A6.48 6.48 0 0 0 15.959 26.194" fill="#ffffff" data-fill-palette-color="quaternary"></path></svg></g></svg></g></svg></g></svg></g></svg></g><defs></defs></svg><rect width="395.52" height="97.65512734909952" fill="none" stroke="none" visibility="hidden"></rect></g></svg></g></svg>